<?xml version="1.0" encoding="UTF-8" standalone="no"?><!DOCTYPE svg PUBLIC "-//W3C//DTD SVG 1.1//EN" "http://www.w3.org/Graphics/SVG/1.1/DTD/svg11.dtd"><svg width="100%" height="100%" viewBox="0 0 67 67" version="1.1" xmlns="http://www.w3.org/2000/svg" xmlns:xlink="http://www.w3.org/1999/xlink" xml:space="preserve" xmlns:serif="http://www.serif.com/" style="fill-rule:evenodd;clip-rule:evenodd;stroke-linejoin:round;stroke-miterlimit:2;"><path d="M10.604,39.583c-1.458,-3.171 -2.271,-6.7 -2.271,-10.416c0,-13.798 11.202,-25 25,-25c13.798,-0 25,11.202 25,25c0,3.716 -0.812,7.245 -2.27,10.416l0,5.209c0,2.874 -2.334,5.208 -5.208,5.208l-5.022,0l0,6.25c0,3.449 -2.8,6.25 -6.25,6.25l-12.5,-0c-3.449,-0 -6.25,-2.801 -6.25,-6.25l0,-6.25l-5.021,0c-2.875,0 -5.208,-2.334 -5.208,-5.208l-0,-5.209Zm22.712,12.974c-0.647,0.966 -1.445,1.502 -2.137,1.316c-1.111,-0.297 -1.53,-2.34 -0.935,-4.559c0.594,-2.219 1.979,-3.778 3.089,-3.481c1.111,-0.297 2.502,1.288 3.105,3.538c0.603,2.25 0.191,4.318 -0.92,4.616c-0.712,0.191 -1.54,-0.393 -2.202,-1.43Zm-10.399,-23.39c3.449,-0 6.25,2.8 6.25,6.25c-0,3.449 -2.801,6.25 -6.25,6.25c-3.45,-0 -6.25,-2.801 -6.25,-6.25c-0,-3.45 2.8,-6.25 6.25,-6.25Zm20.833,-0c3.449,-0 6.25,2.8 6.25,6.25c0,3.449 -2.801,6.25 -6.25,6.25c-3.449,-0 -6.25,-2.801 -6.25,-6.25c0,-3.45 2.801,-6.25 6.25,-6.25Z" style="fill:#e0e0e0;"/></svg>